<svg width="51" height="52" viewBox="0 0 51 52" fill="none" xmlns="http://www.w3.org/2000/svg">
<path d="M50.1733 0.66842C50.2795 0.339274 50.0367 0 49.6927 0H30.4439H10.8612C10.6437 0 10.4514 0.141786 10.3806 0.344337L5.14979 16.0674L0.0252024 31.4714C-0.0810328 31.8006 0.161791 32.1398 0.50579 32.1398H19.3904C19.6079 32.1398 19.8001 31.9981 19.871 31.7955L24.9854 16.4219C25.0562 16.2142 25.2485 16.0775 25.466 16.0775H44.6845C44.902 16.0775 45.0942 15.9357 45.165 15.7332L50.1733 0.66842Z" fill="#ED3729"/>
<path d="M44.189 32.8032C44.3003 32.474 44.0524 32.1348 43.7084 32.1348H32.0833H20.1192C19.9016 32.1348 19.7094 32.2766 19.6386 32.4791L13.3707 51.3265C13.2594 51.6557 13.5073 51.9949 13.8513 51.9949H25.1122C25.3297 51.9949 25.522 51.8531 25.5928 51.6506L28.6635 42.4142C28.7343 42.2066 28.9266 42.0699 29.1441 42.0699H40.744C40.9615 42.0699 41.1537 41.9281 41.2245 41.7256L44.189 32.8032Z" fill="#FF6F43"/>
</svg>
