<svg width="26" height="25" viewBox="0 0 26 25" fill="none" xmlns="http://www.w3.org/2000/svg">
<path d="M1.14307 1.21387H5.42878L8.30021 15.5603C8.39819 16.0536 8.66654 16.4967 9.05829 16.812C9.45005 17.1274 9.94024 17.2949 10.4431 17.2853H20.8574C21.3602 17.2949 21.8504 17.1274 22.2421 16.812C22.6339 16.4967 22.9022 16.0536 23.0002 15.5603L24.7145 6.57101H6.50021M10.7859 22.6424C10.7859 23.2342 10.3062 23.7139 9.7145 23.7139C9.12276 23.7139 8.64307 23.2342 8.64307 22.6424C8.64307 22.0507 9.12276 21.571 9.7145 21.571C10.3062 21.571 10.7859 22.0507 10.7859 22.6424ZM22.5716 22.6424C22.5716 23.2342 22.0919 23.7139 21.5002 23.7139C20.9085 23.7139 20.4288 23.2342 20.4288 22.6424C20.4288 22.0507 20.9085 21.571 21.5002 21.571C22.0919 21.571 22.5716 22.0507 22.5716 22.6424Z" stroke="#202020" stroke-width="2.2" stroke-linecap="round" stroke-linejoin="round"/>
</svg>
