<svg width="26" height="26" viewBox="0 0 26 26" fill="none" xmlns="http://www.w3.org/2000/svg">
<path d="M21.6667 5.41666H17.3333V4.1925C17.3333 3.65521 17.1199 3.13993 16.74 2.76002C16.3601 2.3801 15.8448 2.16666 15.3075 2.16666H10.6925C10.1552 2.16666 9.63994 2.3801 9.26002 2.76002C8.8801 3.13993 8.66667 3.65521 8.66667 4.1925V5.41666H4.33333C4.04602 5.41666 3.77047 5.5308 3.5673 5.73397C3.36414 5.93713 3.25 6.21268 3.25 6.5C3.25 6.78732 3.36414 7.06287 3.5673 7.26603C3.77047 7.46919 4.04602 7.58333 4.33333 7.58333H5.41667V22.75C5.41667 23.0373 5.5308 23.3129 5.73397 23.516C5.93713 23.7192 6.21268 23.8333 6.5 23.8333H19.5C19.7873 23.8333 20.0629 23.7192 20.266 23.516C20.4692 23.3129 20.5833 23.0373 20.5833 22.75V7.58333H21.6667C21.954 7.58333 22.2295 7.46919 22.4327 7.26603C22.6359 7.06287 22.75 6.78732 22.75 6.5C22.75 6.21268 22.6359 5.93713 22.4327 5.73397C22.2295 5.5308 21.954 5.41666 21.6667 5.41666ZM10.8333 4.33333H15.1667V5.41666H10.8333V4.33333ZM18.4167 21.6667H7.58333V7.58333H18.4167V21.6667Z" fill="#BDBDBD"/>
<path d="M15.1667 9.75C14.8793 9.75 14.6038 9.86413 14.4006 10.0673C14.1975 10.2705 14.0833 10.546 14.0833 10.8333V18.4167C14.0833 18.704 14.1975 18.9795 14.4006 19.1827C14.6038 19.3859 14.8793 19.5 15.1667 19.5C15.454 19.5 15.7295 19.3859 15.9327 19.1827C16.1359 18.9795 16.25 18.704 16.25 18.4167V10.8333C16.25 10.546 16.1359 10.2705 15.9327 10.0673C15.7295 9.86413 15.454 9.75 15.1667 9.75Z" fill="#BDBDBD"/>
<path d="M10.8333 9.75C10.546 9.75 10.2705 9.86413 10.0673 10.0673C9.86414 10.2705 9.75 10.546 9.75 10.8333V18.4167C9.75 18.704 9.86414 18.9795 10.0673 19.1827C10.2705 19.3859 10.546 19.5 10.8333 19.5C11.1207 19.5 11.3962 19.3859 11.5994 19.1827C11.8025 18.9795 11.9167 18.704 11.9167 18.4167V10.8333C11.9167 10.546 11.8025 10.2705 11.5994 10.0673C11.3962 9.86413 11.1207 9.75 10.8333 9.75Z" fill="#BDBDBD"/>
</svg>
