<svg width="26" height="26" viewBox="0 0 26 26" fill="none" xmlns="http://www.w3.org/2000/svg">
<path d="M13.0003 22.9992H12.762C12.5415 22.9643 12.3372 22.8621 12.177 22.7067L3.84617 14.365C2.78514 13.2274 2.20724 11.7223 2.23431 10.167C2.26137 8.61163 2.89128 7.12755 3.99125 6.02758C5.09121 4.92761 6.5753 4.2977 8.13065 4.27064C9.686 4.24358 11.1911 4.82147 12.3287 5.8825L13.0003 6.5L13.6503 5.85C14.7784 4.73131 16.3028 4.10362 17.8916 4.10362C19.4803 4.10362 21.0047 4.73131 22.1328 5.85C23.2568 6.97532 23.8881 8.50077 23.8881 10.0913C23.8881 11.6817 23.2568 13.2072 22.1328 14.3325L13.7912 22.6742C13.6883 22.7792 13.5651 22.8621 13.4292 22.918C13.2932 22.9739 13.1473 23.0015 13.0003 22.9992ZM8.06033 6.2725C7.31163 6.28208 6.58211 6.51063 5.96176 6.92995C5.34142 7.34927 4.8574 7.94102 4.56941 8.63219C4.28143 9.32336 4.20207 10.0837 4.34114 10.8195C4.48021 11.5552 4.83161 12.2341 5.352 12.7725L12.9353 20.3558L20.5187 12.7725C21.2358 12.0536 21.6385 11.0796 21.6385 10.0642C21.6385 9.04874 21.2358 8.07476 20.5187 7.35583C20.1641 6.99815 19.7423 6.71424 19.2774 6.52049C18.8126 6.32674 18.3139 6.22698 17.8103 6.22698C17.3067 6.22698 16.8081 6.32674 16.3432 6.52049C15.8784 6.71424 15.4565 6.99815 15.102 7.35583L13.6828 8.76417C13.4799 8.96594 13.2053 9.07919 12.9191 9.07919C12.6329 9.07919 12.3583 8.96594 12.1553 8.76417L10.7687 7.39917C10.414 7.04188 9.99201 6.75837 9.52717 6.565C9.06233 6.37163 8.56379 6.27221 8.06033 6.2725Z" fill="#BDBDBD"/>
</svg>
