<svg width="21" height="21" viewBox="0 0 21 21" fill="none" xmlns="http://www.w3.org/2000/svg">
<path d="M7.57101 19.5714C8.0444 19.5714 8.42815 19.1877 8.42815 18.7143C8.42815 18.2409 8.0444 17.8572 7.57101 17.8572C7.09762 17.8572 6.71387 18.2409 6.71387 18.7143C6.71387 19.1877 7.09762 19.5714 7.57101 19.5714Z" fill="#BDBDBD"/>
<path d="M16.9996 19.5714C17.473 19.5714 17.8567 19.1877 17.8567 18.7143C17.8567 18.2409 17.473 17.8572 16.9996 17.8572C16.5262 17.8572 16.1424 18.2409 16.1424 18.7143C16.1424 19.1877 16.5262 19.5714 16.9996 19.5714Z" fill="#BDBDBD"/>
<path d="M0.713867 1.57144H4.14244L6.43958 13.0486C6.51796 13.4432 6.73265 13.7977 7.04605 14.05C7.35945 14.3023 7.75161 14.4363 8.15387 14.4286H16.4853C16.8876 14.4363 17.2797 14.3023 17.5931 14.05C17.9065 13.7977 18.1212 13.4432 18.1996 13.0486L19.571 5.85716H4.99958" fill="#BDBDBD"/>
<path d="M0.713867 1.57144H4.14244L6.43958 13.0486C6.51796 13.4432 6.73265 13.7977 7.04605 14.05C7.35945 14.3023 7.75161 14.4363 8.15387 14.4286H16.4853C16.8876 14.4363 17.2797 14.3023 17.5931 14.05C17.9065 13.7977 18.1212 13.4432 18.1996 13.0486L19.571 5.85716H4.99958M8.42815 18.7143C8.42815 19.1877 8.0444 19.5714 7.57101 19.5714C7.09762 19.5714 6.71387 19.1877 6.71387 18.7143C6.71387 18.2409 7.09762 17.8572 7.57101 17.8572C8.0444 17.8572 8.42815 18.2409 8.42815 18.7143ZM17.8567 18.7143C17.8567 19.1877 17.473 19.5714 16.9996 19.5714C16.5262 19.5714 16.1424 19.1877 16.1424 18.7143C16.1424 18.2409 16.5262 17.8572 16.9996 17.8572C17.473 17.8572 17.8567 18.2409 17.8567 18.7143Z" stroke="#BDBDBD" stroke-width="1.2" stroke-linecap="round" stroke-linejoin="round"/>
</svg>
