<svg width="24" height="22" viewBox="0 0 24 22" fill="none" xmlns="http://www.w3.org/2000/svg">
<path d="M21.0619 3.06242C20.5383 2.52189 19.9166 2.0931 19.2324 1.80055C18.5481 1.508 17.8147 1.35742 17.0741 1.35742C16.3334 1.35742 15.6 1.508 14.9158 1.80055C14.2316 2.0931 13.6099 2.52189 13.0863 3.06242L11.9997 4.18369L10.913 3.06242C9.85538 1.97109 8.42093 1.35799 6.92522 1.35799C5.42952 1.35799 3.99507 1.97109 2.93744 3.06242C1.87981 4.15375 1.28564 5.63391 1.28564 7.17728C1.28564 8.72065 1.87981 10.2008 2.93744 11.2921L4.02408 12.4134L11.9997 20.6431L19.9752 12.4134L21.0619 11.2921C21.5857 10.7519 22.0013 10.1104 22.2848 9.40434C22.5683 8.69829 22.7142 7.94153 22.7142 7.17728C22.7142 6.41303 22.5683 5.65627 22.2848 4.95022C22.0013 4.24418 21.5857 3.6027 21.0619 3.06242V3.06242Z" stroke="#202020" stroke-width="2.2" stroke-linecap="round" stroke-linejoin="round"/>
</svg>
