<svg width="169" height="52" viewBox="0 0 169 52" fill="none" xmlns="http://www.w3.org/2000/svg">
<g clip-path="url(#clip0_757_6823)">
<path d="M72.6396 19.8095L72.9178 17.9258C73.4237 14.9179 75.2499 13.4595 78.4977 13.4595C79.3223 13.4595 79.99 13.5608 80.4858 13.7634L80.7843 13.8849L81.5583 8.82618L81.3711 8.75022C80.4807 8.40082 79.5145 8.22359 78.5027 8.22359C75.0374 8.22359 72.2905 9.02366 70.3378 10.5934C68.3851 12.1683 67.1254 14.609 66.5892 17.8397L66.2958 19.7994H62.0869L61.2673 25.0303H65.4763L62.4207 44.3334L62.3752 44.6271H68.719L71.82 25.0303H78.9934L79.813 19.7994H72.6396V19.8095Z" fill="#202020"/>
<path d="M103.569 21.1059C101.667 19.7842 98.8695 19.1158 95.2575 19.1158C91.5292 19.1158 88.59 19.7285 86.521 20.9337C84.4317 22.1541 83.081 24.1846 82.5144 26.9596L82.4537 27.2634H88.327L88.3775 27.0761C88.8682 25.2632 91.1194 24.3467 95.0754 24.3467C98.7026 24.3467 100.468 25.3696 100.468 27.4761C100.468 27.9217 100.438 28.3623 100.377 28.7825L100.139 30.3827C97.9944 29.6991 95.465 29.3548 92.6168 29.3548C88.4231 29.3548 85.1348 30.1093 82.8533 31.598C80.5364 33.107 79.3577 35.3705 79.3577 38.3177C79.3577 40.6166 80.2177 42.3889 81.9174 43.5739C83.5868 44.7385 86.0505 45.331 89.2375 45.331C93.0772 45.331 96.1327 44.141 98.3333 41.7965L97.8729 44.6373H103.893L106.331 29.2332C106.427 28.6661 106.473 27.8711 106.473 26.8735C106.478 24.3872 105.502 22.4478 103.569 21.1059ZM90.7653 40.3786C87.3101 40.3786 85.5547 39.5279 85.5547 37.8518C85.5547 36.677 86.182 35.7908 87.4771 35.1376C88.8075 34.4641 90.6439 34.1248 92.9406 34.1248C95.4548 34.1248 97.6301 34.3932 99.4108 34.93L99.1731 36.3478C98.6115 37.5682 97.5795 38.5557 96.1125 39.2747C94.6151 40.0039 92.8192 40.3786 90.7653 40.3786Z" fill="#202020"/>
<path d="M112.731 25.0404H127.543L127.467 25.5265L110.424 38.1607L110.343 38.2214L109.306 44.6373H132.081L132.951 39.4064H117.769L117.84 38.9709L135.02 26.3823L135.106 26.3216L136.138 19.8095H113.601L112.731 25.0404Z" fill="#202020"/>
<path d="M165.54 21.597C163.268 19.9513 159.894 19.1158 155.513 19.1158C150.419 19.1158 146.493 20.1285 143.837 22.1338C141.171 24.1391 139.456 27.39 138.743 31.8006C138.556 33.1931 138.465 34.3882 138.465 35.3553C138.465 41.9788 143.018 45.3361 152.002 45.3361C157.127 45.3361 161.088 44.3031 163.774 42.2725C166.47 40.2318 168.155 36.9656 168.777 32.5601C168.934 31.3803 169.01 30.1396 169.01 28.8686C169 25.7038 167.836 23.258 165.54 21.597ZM144.935 31.9677C145.416 29.2636 146.427 27.309 147.94 26.1494C149.463 24.9847 151.825 24.3922 154.962 24.3922C157.704 24.3922 159.712 24.8075 160.931 25.6227C162.135 26.4279 162.717 27.6736 162.717 29.4206C162.717 30.0282 162.641 31.0309 162.489 32.3981C162.1 35.1275 161.133 37.1175 159.621 38.3025C158.098 39.4975 155.726 40.1001 152.559 40.1001C149.817 40.1001 147.793 39.6646 146.549 38.8038C145.314 37.9531 144.712 36.6415 144.712 34.7983C144.707 33.9122 144.783 32.9602 144.935 31.9677Z" fill="#202020"/>
<path d="M50.1733 0.66842C50.2795 0.339274 50.0367 0 49.6927 0H30.4439H10.8612C10.6437 0 10.4514 0.141786 10.3806 0.344337L5.14979 16.0674L0.0252024 31.4714C-0.0810328 31.8006 0.16179 32.1398 0.50579 32.1398H19.3904C19.6079 32.1398 19.8001 31.9981 19.8709 31.7955L24.9854 16.4219C25.0562 16.2142 25.2485 16.0775 25.466 16.0775H44.6845C44.902 16.0775 45.0942 15.9357 45.165 15.7332L50.1733 0.66842Z" fill="#ED3729"/>
<path d="M44.1888 32.8032C44.3001 32.474 44.0522 32.1348 43.7082 32.1348H32.083H20.1189C19.9014 32.1348 19.7091 32.2766 19.6383 32.4791L13.3704 51.3265C13.2591 51.6557 13.507 51.9949 13.851 51.9949H25.112C25.3295 51.9949 25.5217 51.8531 25.5925 51.6506L28.6633 42.4142C28.7341 42.2066 28.9263 42.0699 29.1438 42.0699H40.7437C40.9612 42.0699 41.1535 41.9281 41.2243 41.7256L44.1888 32.8032Z" fill="#FF6F43"/>
</g>
<defs>
<clipPath id="clip0_757_6823">
<rect width="169" height="52" fill="white"/>
</clipPath>
</defs>
</svg>
