<svg width="25" height="25" viewBox="0 0 25 25" fill="none" xmlns="http://www.w3.org/2000/svg">
<path d="M24.2676 3.66211H24.0234V2.19727C24.0234 0.985693 23.0377 0 21.8262 0H12.0605C10.849 0 9.86328 0.985693 9.86328 2.19727V9.52148C9.86328 10.7331 10.849 11.7188 12.0605 11.7188H21.8262C23.0377 11.7188 24.0234 10.7331 24.0234 9.52148V8.05664H24.2676C24.6721 8.05664 25 7.72871 25 7.32422V4.39453C25 3.99004 24.6721 3.66211 24.2676 3.66211ZM22.5586 9.52148C22.5586 9.92534 22.23 10.2539 21.8262 10.2539H12.0605C11.6567 10.2539 11.3281 9.92534 11.3281 9.52148V2.19727C11.3281 1.79341 11.6567 1.46484 12.0605 1.46484H21.8262C22.23 1.46484 22.5586 1.79341 22.5586 2.19727V3.66211H21.8262C20.6146 3.66211 19.6289 4.6478 19.6289 5.85938C19.6289 7.07095 20.6146 8.05664 21.8262 8.05664H22.5586V9.52148ZM23.5352 6.5918H21.8262C21.4223 6.5918 21.0938 6.26323 21.0938 5.85938C21.0938 5.45552 21.4223 5.12695 21.8262 5.12695H23.5352V6.5918Z" fill="#909090"/>
<path d="M14.4043 16.9434H14.1602V15.4785C14.1602 14.2669 13.1745 13.2812 11.9629 13.2812H2.19727C0.985693 13.2812 0 14.2669 0 15.4785V22.8027C0 24.0143 0.985693 25 2.19727 25H11.9629C13.1745 25 14.1602 24.0143 14.1602 22.8027V21.3379H14.4043C14.8088 21.3379 15.1367 21.01 15.1367 20.6055V17.6758C15.1367 17.2713 14.8088 16.9434 14.4043 16.9434ZM12.6953 22.8027C12.6953 23.2066 12.3667 23.5352 11.9629 23.5352H2.19727C1.79341 23.5352 1.46484 23.2066 1.46484 22.8027V15.4785C1.46484 15.0747 1.79341 14.7461 2.19727 14.7461H11.9629C12.3667 14.7461 12.6953 15.0747 12.6953 15.4785V16.9434H11.9629C10.7513 16.9434 9.76562 17.9291 9.76562 19.1406C9.76562 20.3522 10.7513 21.3379 11.9629 21.3379H12.6953V22.8027ZM13.6719 19.873H11.9629C11.559 19.873 11.2305 19.5445 11.2305 19.1406C11.2305 18.7368 11.559 18.4082 11.9629 18.4082H13.6719V19.873Z" fill="#909090"/>
<path d="M20.3125 13.5254C19.908 13.5254 19.5801 13.8533 19.5801 14.2578V18.4082H17.3828C16.9783 18.4082 16.6504 18.7361 16.6504 19.1406C16.6504 19.5451 16.9783 19.873 17.3828 19.873H20.3125C20.717 19.873 21.0449 19.5451 21.0449 19.1406V14.2578C21.0449 13.8533 20.717 13.5254 20.3125 13.5254Z" fill="#909090"/>
<path d="M4.6875 11.4746C5.09199 11.4746 5.41992 11.1467 5.41992 10.7422V6.5918H7.61719C8.02168 6.5918 8.34961 6.26387 8.34961 5.85938C8.34961 5.45488 8.02168 5.12695 7.61719 5.12695H4.6875C4.28301 5.12695 3.95508 5.45488 3.95508 5.85938V10.7422C3.95508 11.1467 4.28301 11.4746 4.6875 11.4746Z" fill="#909090"/>
</svg>
