<svg width="25" height="25" viewBox="0 0 25 25" fill="none" xmlns="http://www.w3.org/2000/svg">
<g clip-path="url(#clip0_237_7054)">
<path d="M21.7354 6.49846H6.5088C5.09788 6.49846 3.94443 5.35015 3.94443 3.93409C3.94443 2.52317 5.09273 1.36972 6.5088 1.36972H21.7405C22.1216 1.36972 22.4254 1.06076 22.4254 0.684861C22.4254 0.303811 22.1164 0 21.7405 0H6.5088C4.34093 0 2.57471 1.76622 2.57471 3.93409V21.0659C2.57471 23.2338 4.34093 25 6.5088 25H21.7405C22.1216 25 22.4254 24.691 22.4254 24.3151V7.18332C22.4202 6.80742 22.1164 6.49846 21.7354 6.49846ZM21.0505 23.6303H6.5088C5.09788 23.6303 3.94443 22.482 3.94443 21.0659V6.9207C4.63444 7.51287 5.53042 7.87333 6.5088 7.87333H21.0505V23.6303Z" fill="#909090"/>
<path d="M6.72441 3.31104C6.34336 3.31104 6.03955 3.61999 6.03955 3.9959C6.03955 4.3718 6.34851 4.68076 6.72441 4.68076H19.5874C19.9685 4.68076 20.2723 4.3718 20.2723 3.9959C20.2723 3.61999 19.9633 3.31104 19.5874 3.31104H6.72441Z" fill="#909090"/>
<path d="M9.13585 20.6333C9.21309 20.6591 9.29033 20.6745 9.36757 20.6745C9.65078 20.6745 9.9134 20.4995 10.0112 20.2214L10.8454 17.8887H14.0586C14.0844 17.8887 14.1153 17.8887 14.141 17.8836L14.9752 20.2214C15.073 20.4995 15.3408 20.6745 15.6189 20.6745C15.6961 20.6745 15.7733 20.6591 15.8506 20.6333C16.2059 20.5046 16.3913 20.1133 16.2625 19.758L13.142 11.0092C13.1369 10.9886 13.1266 10.968 13.1163 10.9474C13.1111 10.9371 13.106 10.9268 13.1008 10.9165C13.0957 10.9062 13.0905 10.8959 13.0854 10.8856C13.0802 10.8753 13.0699 10.8651 13.0648 10.8496C13.0596 10.8445 13.0545 10.8342 13.0493 10.829C13.0442 10.8187 13.0339 10.8084 13.0236 10.7981C13.0184 10.793 13.0133 10.7827 13.003 10.7775C12.9979 10.7672 12.9876 10.7621 12.9773 10.7518C12.967 10.7415 12.9618 10.7363 12.9515 10.726C12.9464 10.7209 12.9361 10.7157 12.9309 10.7054C12.9206 10.6951 12.9103 10.69 12.9 10.6797C12.8949 10.6745 12.8846 10.6694 12.8794 10.6642C12.8691 10.6591 12.8588 10.6488 12.8485 10.6436C12.8382 10.6385 12.8279 10.6333 12.8176 10.6282C12.8073 10.623 12.797 10.6179 12.7867 10.6127C12.7661 10.6024 12.7455 10.5921 12.7249 10.587H12.7198C12.6992 10.5818 12.6786 10.5767 12.658 10.5715C12.6477 10.5715 12.6425 10.5664 12.6322 10.5664C12.6168 10.5612 12.6065 10.5612 12.5911 10.5561C12.5808 10.5561 12.5705 10.5561 12.5602 10.5509C12.5499 10.5509 12.5344 10.5458 12.5241 10.5458C12.5138 10.5458 12.5035 10.5458 12.4932 10.5458C12.4829 10.5458 12.4726 10.5458 12.4572 10.5458C12.4469 10.5458 12.4314 10.5458 12.4211 10.5509C12.4108 10.5509 12.4005 10.5509 12.3902 10.5561C12.3748 10.5561 12.3645 10.5612 12.349 10.5664C12.3387 10.5664 12.3336 10.5715 12.3233 10.5715C12.3027 10.5767 12.2821 10.5818 12.2666 10.587H12.2615C12.2409 10.5921 12.2203 10.6024 12.1997 10.6127C12.1894 10.6179 12.1791 10.623 12.1688 10.6282C12.1585 10.6333 12.1482 10.6385 12.1379 10.6436C12.1276 10.6488 12.1173 10.6591 12.1019 10.6642C12.0967 10.6694 12.0864 10.6745 12.0813 10.6797C12.071 10.69 12.0607 10.6951 12.0504 10.7054C12.0452 10.7106 12.0349 10.7157 12.0298 10.726C12.0195 10.7363 12.0143 10.7415 12.004 10.7518C11.9937 10.7621 11.9886 10.7672 11.9783 10.7775C11.9731 10.7827 11.968 10.793 11.9577 10.7981C11.9474 10.8084 11.9422 10.8187 11.9319 10.829C11.9268 10.8342 11.9216 10.8445 11.9165 10.8496C11.9113 10.8599 11.901 10.8702 11.8959 10.8805C11.8907 10.8908 11.8856 10.9011 11.8804 10.9114C11.8753 10.9217 11.8701 10.932 11.865 10.9423C11.8547 10.9629 11.8444 10.9835 11.8393 11.0041L8.70846 19.7528C8.59517 20.1133 8.78055 20.5046 9.13585 20.6333ZM12.4984 13.2749L13.657 16.519H11.3346L12.4984 13.2749Z" fill="#909090"/>
</g>
<defs>
<clipPath id="clip0_237_7054">
<rect width="25" height="25" fill="white"/>
</clipPath>
</defs>
</svg>
