<svg width="25" height="21" viewBox="0 0 25 21" fill="none" xmlns="http://www.w3.org/2000/svg">
<path d="M23.6003 9.05661H23.0055V5.62592C23.0055 4.22313 21.816 3.08614 20.3599 3.08614H19.8113L19.8164 1.81132C19.8164 0.866285 19.0166 0.0984421 18.0322 0.0984421H2.16879C0.984413 0.0984421 0.0153815 1.01395 0 2.15094C0 2.16079 0 2.17063 0 2.18048V18.9844C0 19.9295 0.799836 20.6973 1.78425 20.6973H20.3651C21.8263 20.6973 23.0107 19.5554 23.0107 18.1575V14.7219H23.6054C24.3745 14.7219 25 14.1214 25 13.3831V10.3954C24.9949 9.6571 24.3694 9.05661 23.6003 9.05661ZM2.16879 1.27974H18.0322C18.3347 1.27974 18.5859 1.516 18.5859 1.8064L18.5808 3.08614H2.16879C1.65094 3.08614 1.23052 2.68253 1.23052 2.1854C1.23052 1.68827 1.65094 1.27974 2.16879 1.27974ZM21.775 18.1526C21.775 18.9007 21.1393 19.5111 20.3599 19.5111H1.77912C1.47662 19.5111 1.22539 19.2748 1.22539 18.9795V4.06071C1.51251 4.1936 1.83039 4.26743 2.16879 4.26743H20.3599C21.1393 4.26743 21.775 4.87777 21.775 5.62592V9.05661H17.5759C16.8068 9.05661 16.1813 9.6571 16.1813 10.3954V13.3831C16.1813 14.1214 16.8068 14.7219 17.5759 14.7219H21.775V18.1526ZM23.7644 13.3831C23.7644 13.4717 23.6926 13.5406 23.6003 13.5406H17.581C17.4887 13.5406 17.4169 13.4717 17.4169 13.3831V10.3954C17.4169 10.3117 17.4887 10.2379 17.581 10.2379H23.6003C23.6874 10.2379 23.7644 10.3068 23.7644 10.3954V13.3831Z" fill="#909090"/>
</svg>
