<svg width="25" height="26" viewBox="0 0 25 26" fill="none" xmlns="http://www.w3.org/2000/svg">
<g clip-path="url(#clip0_237_7042)">
<path d="M23.405 5.72641C23.405 4.74907 22.8176 4.08885 21.8299 3.96409C21.6427 3.93809 21.4504 3.9173 21.2632 3.89651C20.707 3.82892 20.1819 3.77174 19.6776 3.66257C17.7074 3.23109 15.7995 2.34213 13.6889 0.86573C13.3406 0.621397 12.9559 0.397858 12.5036 0.397858C12.0565 0.397858 11.6718 0.621397 11.3235 0.860532C8.50068 2.7996 5.95857 3.78734 3.32808 3.95369C2.18959 4.02647 1.59176 4.6711 1.59176 5.81998C1.59176 6.5062 1.59176 7.19241 1.59176 7.87862V7.88902C1.58656 9.7969 1.58656 11.7672 1.60735 13.7114C1.61255 14.434 1.70612 15.1826 1.87768 15.9416C2.28317 17.7195 3.20852 19.3207 4.70571 20.8335C6.572 22.7206 8.91136 24.1762 11.8538 25.2835C12.0513 25.3563 12.2645 25.3979 12.488 25.3979C12.7583 25.3979 13.0286 25.3407 13.2678 25.2367C13.4289 25.1639 13.5953 25.0963 13.7564 25.0288L13.772 25.0236C14.4842 24.7168 15.2173 24.3997 15.9347 24.0254C18.326 22.7622 20.1351 21.2702 21.466 19.4611C22.6616 17.8391 23.2803 16.2068 23.353 14.4704C23.3686 14.1377 23.379 13.7842 23.3842 13.3839L23.4102 10.1712C23.4102 10.1504 23.4102 10.1348 23.4102 10.114V8.86635C23.4102 7.81624 23.4102 6.77132 23.405 5.72641ZM22.1574 10.1088C22.1574 10.1192 22.1574 10.1296 22.1574 10.1452L22.1314 13.3683C22.1262 13.753 22.1158 14.0909 22.1054 14.4132C22.043 15.8948 21.5023 17.3037 20.4574 18.7177C19.241 20.3708 17.567 21.7433 15.3472 22.9181C14.6766 23.2716 13.9644 23.5784 13.273 23.8747L13.2574 23.8799C13.091 23.9526 12.9299 24.0202 12.7635 24.093C12.6803 24.1294 12.5816 24.1502 12.4828 24.1502C12.41 24.1502 12.3424 24.1398 12.2852 24.119C9.5144 23.0741 7.3206 21.7121 5.58427 19.9601C4.26383 18.6137 3.44765 17.2101 3.09415 15.6661C2.93819 14.9955 2.86021 14.3353 2.85501 13.701C2.83422 11.7672 2.83942 9.7969 2.83942 7.89422V7.88382C2.83942 7.19761 2.83942 6.51139 2.83942 5.82518C2.83942 5.58605 2.87581 5.40929 2.94859 5.33651C3.01617 5.26373 3.17732 5.21695 3.41126 5.20135C6.27568 5.0142 9.01534 3.96409 12.0305 1.88465C12.2645 1.7235 12.4204 1.64552 12.5036 1.64552C12.5868 1.64552 12.7427 1.7287 12.9767 1.88985C15.2276 3.45982 17.2759 4.41117 19.4125 4.87904C19.974 5.0038 20.5302 5.06619 21.1228 5.13377C21.31 5.15456 21.4919 5.17536 21.6791 5.20135C22.043 5.24814 22.1626 5.3781 22.1626 5.72641C22.1626 6.77132 22.1626 7.81624 22.1626 8.86116L22.1574 10.1088Z" fill="#909090"/>
<path d="M8.3335 14.0342L10.4909 15.5215C10.9063 15.8079 11.4699 15.7399 11.8054 15.3631L17.7085 8.73119" stroke="#909090" stroke-width="1.2" stroke-linecap="round"/>
</g>
<defs>
<clipPath id="clip0_237_7042">
<rect width="25" height="25" fill="white" transform="translate(0 0.397858)"/>
</clipPath>
</defs>
</svg>
