<svg width="26" height="26" viewBox="0 0 26 26" fill="none" xmlns="http://www.w3.org/2000/svg">
<path fill-rule="evenodd" clip-rule="evenodd" d="M18.8655 24.9153H7.69776C7.54034 24.9229 7.38303 24.898 7.23574 24.8419C7.08844 24.7858 6.95435 24.6998 6.8419 24.5894C6.72944 24.479 6.64106 24.3465 6.58231 24.2002C6.52356 24.054 6.49572 23.8971 6.50053 23.7396V3.34366C6.49572 3.18612 6.52356 3.02929 6.58231 2.88304C6.64106 2.73679 6.72944 2.60428 6.8419 2.49385C6.95435 2.38342 7.08844 2.29746 7.23574 2.24138C7.38303 2.1853 7.54034 2.16031 7.69776 2.16798H18.8655C19.0229 2.16031 19.1802 2.1853 19.3275 2.24138C19.4748 2.29746 19.6089 2.38342 19.7213 2.49385C19.8338 2.60428 19.9222 2.73679 19.9809 2.88304C20.0397 3.02929 20.0675 3.18612 20.0627 3.34366V23.7396C20.0675 23.8971 20.0397 24.054 19.9809 24.2002C19.9222 24.3465 19.8338 24.479 19.7213 24.5894C19.6089 24.6998 19.4748 24.7858 19.3275 24.8419C19.1802 24.898 19.0229 24.9229 18.8655 24.9153ZM13.2816 23.7396C13.4364 23.7372 13.5871 23.6892 13.7146 23.6015C13.8422 23.5137 13.941 23.3903 13.9986 23.2466C14.0562 23.1029 14.0701 22.9453 14.0384 22.7938C14.0068 22.6422 13.9311 22.5034 13.8208 22.3948C13.7105 22.2861 13.5705 22.2125 13.4185 22.1832C13.2665 22.1538 13.1092 22.1701 12.9664 22.2298C12.8236 22.2896 12.7016 22.3903 12.6158 22.5192C12.5301 22.648 12.4843 22.7994 12.4843 22.9542C12.4996 23.1595 12.5888 23.3522 12.7354 23.4966C12.8821 23.6411 13.0762 23.7274 13.2816 23.7396ZM18.8655 4.52173H7.69776V20.9932H18.8655V4.52173Z" fill="#ED3729"/>
</svg>
