<svg width="20" height="20" viewBox="0 0 20 20" fill="none" xmlns="http://www.w3.org/2000/svg">
<path d="M18.2997 14.1447V16.6537C18.3006 16.8867 18.2529 17.1172 18.1595 17.3306C18.0663 17.544 17.9294 17.7356 17.7577 17.8931C17.5861 18.0506 17.3835 18.1705 17.1629 18.245C16.9423 18.3196 16.7084 18.3474 16.4764 18.3264C13.9029 18.0467 11.4308 17.1674 9.25886 15.7589C7.23813 14.4748 5.5249 12.7616 4.24085 10.7409C2.82742 8.559 1.94782 6.07491 1.67329 3.4898C1.65239 3.25853 1.67988 3.02544 1.754 2.80536C1.82812 2.58529 1.94725 2.38307 2.10381 2.21156C2.26036 2.04005 2.45092 1.90302 2.66334 1.80921C2.87576 1.71538 3.10539 1.6668 3.33761 1.66659H5.84661C6.25249 1.66259 6.64597 1.80632 6.95373 2.07098C7.26147 2.33564 7.46248 2.70318 7.51928 3.10509C7.62518 3.90802 7.82158 4.69641 8.10472 5.45519C8.21724 5.75453 8.24159 6.07986 8.17489 6.39263C8.10819 6.70539 7.95323 6.99247 7.72837 7.21986L6.66622 8.28201C7.85679 10.3758 9.59041 12.1094 11.6842 13.3001L12.7464 12.2379C12.9737 12.013 13.2609 11.8581 13.5736 11.7914C13.8864 11.7247 14.2117 11.749 14.5111 11.8615C15.2698 12.1446 16.0582 12.3411 16.8612 12.447C17.2674 12.5043 17.6385 12.7089 17.9037 13.022C18.1689 13.335 18.3098 13.7345 18.2997 14.1447Z" stroke="white" stroke-width="1.5" stroke-linecap="round" stroke-linejoin="round"/>
</svg>
