<svg width="32" height="22" viewBox="0 0 32 22" fill="none" xmlns="http://www.w3.org/2000/svg">
<path d="M5.32716 12.8089C4.89693 12.8089 4.54492 13.1609 4.54492 13.5912C4.54492 14.0214 4.89693 14.3734 5.32716 14.3734H8.33225C8.76248 14.3734 9.11449 14.0214 9.11449 13.5912C9.11449 13.1609 8.76248 12.8089 8.33225 12.8089H5.32716Z" fill="#ED3729"/>
<path d="M18.499 14.3734H21.5041C21.9344 14.3734 22.2864 14.0214 22.2864 13.5912C22.2864 13.1609 21.9344 12.8089 21.5041 12.8089H18.499C18.0688 12.8089 17.7168 13.1609 17.7168 13.5912C17.7168 14.0214 18.0688 14.3734 18.499 14.3734Z" fill="#ED3729"/>
<path d="M29.8814 0.09758H7.13139C5.96456 0.09758 5.01283 1.0493 5.01283 2.21614V5.28642H1.56447C0.704013 5.28642 0 5.99044 0 6.8509V20.338C0 21.1984 0.704013 21.9024 1.56447 21.9024H25.4227C26.2832 21.9024 26.9872 21.1984 26.9872 20.338V16.7136H29.8814C31.0483 16.7136 32 15.7619 32 14.595V2.20962C31.9935 1.04278 31.0483 0.09758 29.8814 0.09758ZM21.0422 6.8509C21.2182 9.19761 23.0825 11.075 25.4227 11.2771V15.9574C23.076 16.1334 21.1986 17.9978 20.9965 20.338H5.945C5.769 17.9913 3.90467 16.1139 1.56447 15.9118V11.2314C3.91118 11.0554 5.78855 9.19109 5.99063 6.8509H21.0422ZM22.6066 6.8509H25.4162V9.70606C23.943 9.5105 22.7761 8.33063 22.6066 6.8509ZM4.41312 6.8509C4.22408 8.32411 3.0442 9.49747 1.55795 9.66043V6.8509H4.41312ZM1.56447 17.4828C3.03769 17.6719 4.21104 18.8517 4.37401 20.338H1.56447V17.4828ZM22.5675 20.3315C22.7566 18.8582 23.9364 17.6849 25.4227 17.5219V20.3315H22.5675ZM30.429 14.595C30.429 14.9014 30.1813 15.1491 29.8749 15.1491H26.9806V6.8509C26.9806 5.99044 26.2766 5.28642 25.4162 5.28642H6.57079V2.21614C6.57079 1.90976 6.8185 1.66205 7.12487 1.66205H29.8749C30.1813 1.66205 30.429 1.90976 30.429 2.21614V14.595Z" fill="#ED3729"/>
<path d="M12.8231 14.3669H14.1595C14.5376 14.3669 14.8439 14.6733 14.8439 15.0514C14.8439 15.4294 14.5376 15.7358 14.1595 15.7358H11.7606C11.3304 15.7358 10.9784 16.0878 10.9784 16.5181C10.9784 16.9483 11.3304 17.3003 11.7606 17.3003H12.7123V17.9326C12.7123 18.3628 13.0643 18.7148 13.4946 18.7148C13.9248 18.7148 14.2768 18.3628 14.2768 17.9326V17.3003C15.4632 17.2416 16.4084 16.2573 16.4084 15.0579C16.4084 13.8193 15.398 12.8089 14.1595 12.8089H12.8231C12.4451 12.8089 12.1387 12.5026 12.1387 12.1245C12.1387 11.7464 12.4451 11.44 12.8231 11.44H15.1764C15.6066 11.44 15.9586 11.088 15.9586 10.6578C15.9586 10.2276 15.6066 9.87555 15.1764 9.87555H14.2703V9.2628C14.2703 8.83257 13.9183 8.48056 13.4881 8.48056C13.0578 8.48056 12.7058 8.83257 12.7058 9.2628V9.88207C11.5194 9.94074 10.5742 10.9251 10.5742 12.1245C10.5807 13.3565 11.5846 14.3669 12.8231 14.3669Z" fill="#ED3729"/>
</svg>
