<svg width="22" height="16" viewBox="0 0 22 16" fill="none" xmlns="http://www.w3.org/2000/svg">
<path fill-rule="evenodd" clip-rule="evenodd" d="M11.0003 0.666656C10.4434 0.666656 9.99199 1.11809 9.99199 1.67499H4.95033H4.44616C4.16776 1.67499 3.94199 1.90076 3.94199 2.17916C3.94199 2.45756 4.16776 2.68332 4.44616 2.68332H4.52783L4.40371 2.97947L1.12824 10.7959L0.916992 11.3V11.7583L0.917295 11.8042C0.941798 14.0106 2.73804 15.7917 4.95033 15.7917C7.16261 15.7917 8.95885 14.0106 8.98336 11.8042L8.98366 11.7583V11.3L8.77241 10.7959L5.49694 2.97947L5.37282 2.68332H9.99199C9.99199 3.24023 10.4434 3.69166 11.0003 3.69166C11.5572 3.69166 12.0087 3.24023 12.0087 2.68332H16.6278L16.5037 2.97947L13.2282 10.7959L13.017 11.3V11.7583L13.0173 11.8042C13.0418 14.0106 14.838 15.7917 17.0503 15.7917C19.2626 15.7917 21.0589 14.0106 21.0834 11.8042L21.0837 11.7583V11.3L20.8724 10.7959L17.5969 2.97947L17.4728 2.68332H17.5545C17.8329 2.68332 18.0587 2.45756 18.0587 2.17916C18.0587 1.90076 17.8329 1.67499 17.5545 1.67499H17.0503H12.0087C12.0087 1.11809 11.5572 0.666656 11.0003 0.666656ZM4.95033 14.7833C6.60571 14.7833 7.95052 13.4536 7.97502 11.8042H1.92563C1.95013 13.4536 3.29494 14.7833 4.95033 14.7833ZM7.67908 10.7959H2.22157L4.95033 4.28395L7.67908 10.7959ZM17.0503 14.7833C18.7057 14.7833 20.0505 13.4536 20.075 11.8042H14.0256C14.0501 13.4536 15.3949 14.7833 17.0503 14.7833ZM19.7791 10.7959H14.3216L17.0503 4.28395L19.7791 10.7959Z" fill="#C73D3D"/>
</svg>
