<svg width="27" height="26" viewBox="0 0 27 26" fill="none" xmlns="http://www.w3.org/2000/svg">
<path d="M2 2H6.28571L9.15714 16.3464C9.25512 16.8397 9.52347 17.2828 9.91523 17.5982C10.307 17.9135 10.7972 18.0811 11.3 18.0714H21.7143C22.2171 18.0811 22.7073 17.9135 23.0991 17.5982C23.4908 17.2828 23.7592 16.8397 23.8571 16.3464L25.5714 7.35714H7.35714M11.6429 23.4286C11.6429 24.0203 11.1632 24.5 10.5714 24.5C9.9797 24.5 9.5 24.0203 9.5 23.4286C9.5 22.8368 9.9797 22.3571 10.5714 22.3571C11.1632 22.3571 11.6429 22.8368 11.6429 23.4286ZM23.4286 23.4286C23.4286 24.0203 22.9489 24.5 22.3571 24.5C21.7654 24.5 21.2857 24.0203 21.2857 23.4286C21.2857 22.8368 21.7654 22.3571 22.3571 22.3571C22.9489 22.3571 23.4286 22.8368 23.4286 23.4286Z" stroke="#ED3729" stroke-width="2.2" stroke-linecap="round" stroke-linejoin="round"/>
</svg>
