<svg width="20" height="18" viewBox="0 0 20 18" fill="none" xmlns="http://www.w3.org/2000/svg">
<path d="M17.2494 2.64964C16.8306 2.21722 16.3332 1.87418 15.7858 1.64014C15.2385 1.40611 14.6517 1.28564 14.0592 1.28564C13.4667 1.28564 12.88 1.40611 12.3326 1.64014C11.7852 1.87418 11.2879 2.21722 10.869 2.64964L9.99968 3.54666L9.13036 2.64964C8.28426 1.77658 7.1367 1.2861 5.94013 1.2861C4.74356 1.2861 3.596 1.77658 2.7499 2.64964C1.9038 3.52271 1.42847 4.70683 1.42847 5.94153C1.42847 7.17623 1.9038 8.36036 2.7499 9.23342L3.61922 10.1304L9.99968 16.7142L16.3801 10.1304L17.2494 9.23342C17.6685 8.8012 18.001 8.28801 18.2278 7.72318C18.4546 7.15834 18.5713 6.55293 18.5713 5.94153C18.5713 5.33013 18.4546 4.72472 18.2278 4.15989C18.001 3.59505 17.6685 3.08187 17.2494 2.64964Z" fill="#C73D3D" stroke="#C73D3D" stroke-width="1.2" stroke-linecap="round" stroke-linejoin="round"/>
</svg>
