<svg width="30" height="30" viewBox="0 0 30 30" fill="none" xmlns="http://www.w3.org/2000/svg">
<path d="M29.1211 4.39453H28.8281V2.63672C28.8281 1.18283 27.6453 0 26.1914 0H14.4727C13.0188 0 11.8359 1.18283 11.8359 2.63672V11.4258C11.8359 12.8797 13.0188 14.0625 14.4727 14.0625H26.1914C27.6453 14.0625 28.8281 12.8797 28.8281 11.4258V9.66797H29.1211C29.6065 9.66797 30 9.27445 30 8.78906V5.27344C30 4.78805 29.6065 4.39453 29.1211 4.39453ZM27.0703 11.4258C27.0703 11.9104 26.676 12.3047 26.1914 12.3047H14.4727C13.988 12.3047 13.5938 11.9104 13.5938 11.4258V2.63672C13.5938 2.15209 13.988 1.75781 14.4727 1.75781H26.1914C26.676 1.75781 27.0703 2.15209 27.0703 2.63672V4.39453H26.1914C24.7375 4.39453 23.5547 5.57736 23.5547 7.03125C23.5547 8.48514 24.7375 9.66797 26.1914 9.66797H27.0703V11.4258ZM28.2422 7.91016H26.1914C25.7068 7.91016 25.3125 7.51588 25.3125 7.03125C25.3125 6.54662 25.7068 6.15234 26.1914 6.15234H28.2422V7.91016Z" fill="#ED3729"/>
<path d="M17.2852 20.332H16.9922V18.5742C16.9922 17.1203 15.8094 15.9375 14.3555 15.9375H2.63672C1.18283 15.9375 0 17.1203 0 18.5742V27.3633C0 28.8172 1.18283 30 2.63672 30H14.3555C15.8094 30 16.9922 28.8172 16.9922 27.3633V25.6055H17.2852C17.7705 25.6055 18.1641 25.212 18.1641 24.7266V21.2109C18.1641 20.7255 17.7705 20.332 17.2852 20.332ZM15.2344 27.3633C15.2344 27.8479 14.8401 28.2422 14.3555 28.2422H2.63672C2.15209 28.2422 1.75781 27.8479 1.75781 27.3633V18.5742C1.75781 18.0896 2.15209 17.6953 2.63672 17.6953H14.3555C14.8401 17.6953 15.2344 18.0896 15.2344 18.5742V20.332H14.3555C12.9016 20.332 11.7188 21.5149 11.7188 22.9688C11.7188 24.4226 12.9016 25.6055 14.3555 25.6055H15.2344V27.3633ZM16.4062 23.8477H14.3555C13.8708 23.8477 13.4766 23.4534 13.4766 22.9688C13.4766 22.4841 13.8708 22.0898 14.3555 22.0898H16.4062V23.8477Z" fill="#ED3729"/>
<path d="M24.375 16.2305C23.8896 16.2305 23.4961 16.624 23.4961 17.1094V22.0898H20.8594C20.374 22.0898 19.9805 22.4834 19.9805 22.9688C19.9805 23.4541 20.374 23.8477 20.8594 23.8477H24.375C24.8604 23.8477 25.2539 23.4541 25.2539 22.9688V17.1094C25.2539 16.624 24.8604 16.2305 24.375 16.2305Z" fill="#ED3729"/>
<path d="M5.625 13.7695C6.11039 13.7695 6.50391 13.376 6.50391 12.8906V7.91016H9.14062C9.62602 7.91016 10.0195 7.51664 10.0195 7.03125C10.0195 6.54586 9.62602 6.15234 9.14062 6.15234H5.625C5.13961 6.15234 4.74609 6.54586 4.74609 7.03125V12.8906C4.74609 13.376 5.13961 13.7695 5.625 13.7695Z" fill="#ED3729"/>
</svg>
