<svg width="28" height="28" viewBox="0 0 28 28" fill="none" xmlns="http://www.w3.org/2000/svg">
<path fill-rule="evenodd" clip-rule="evenodd" d="M10.3335 8.16667C10.3335 6.14162 11.9751 4.5 14.0002 4.5C16.0252 4.5 17.6668 6.14162 17.6668 8.16667C17.6668 10.1917 16.0252 11.8333 14.0002 11.8333C11.9751 11.8333 10.3335 10.1917 10.3335 8.16667ZM14.0002 2.5C10.8705 2.5 8.3335 5.03705 8.3335 8.16667C8.3335 11.2963 10.8705 13.8333 14.0002 13.8333C17.1298 13.8333 19.6668 11.2963 19.6668 8.16667C19.6668 5.03705 17.1298 2.5 14.0002 2.5ZM6.8335 21.3889C6.8335 19.7694 8.10708 18.5 9.62516 18.5H18.3752C19.8932 18.5 21.1668 19.7694 21.1668 21.3889V22.3333H6.8335V21.3889ZM9.62516 16.5C6.95508 16.5 4.8335 18.7128 4.8335 21.3889V23.3333C4.8335 23.8856 5.28121 24.3333 5.8335 24.3333H22.1668C22.7191 24.3333 23.1668 23.8856 23.1668 23.3333V21.3889C23.1668 18.7128 21.0452 16.5 18.3752 16.5H9.62516Z" fill="black"/>
</svg>
