<svg width="28" height="28" viewBox="0 0 28 28" fill="none" xmlns="http://www.w3.org/2000/svg">
<path fill-rule="evenodd" clip-rule="evenodd" d="M10.3335 8.16667C10.3335 6.14162 11.9751 4.5 14.0002 4.5C16.0252 4.5 17.6668 6.14162 17.6668 8.16667C17.6668 10.1917 16.0252 11.8333 14.0002 11.8333C11.9751 11.8333 10.3335 10.1917 10.3335 8.16667ZM14.0002 2.5C10.8705 2.5 8.3335 5.03705 8.3335 8.16667C8.3335 11.2963 10.8705 13.8333 14.0002 13.8333C17.1298 13.8333 19.6668 11.2963 19.6668 8.16667C19.6668 5.03705 17.1298 2.5 14.0002 2.5ZM22.1668 21.3889C22.1668 19.2411 20.4692 17.5 18.3752 17.5H9.62516C7.53108 17.5 5.8335 19.2411 5.8335 21.3889V23.3333H22.1668V21.3889Z" fill="white"/>
</svg>
