<svg width="24" height="24" viewBox="0 0 24 24" fill="none" xmlns="http://www.w3.org/2000/svg">
<path d="M1.71387 2.57144H5.14244L7.43958 14.0486C7.51796 14.4432 7.73265 14.7977 8.04605 15.05C8.35945 15.3023 8.75161 15.4363 9.15387 15.4286H17.4853C17.8876 15.4363 18.2797 15.3023 18.5931 15.05C18.9065 14.7977 19.1212 14.4432 19.1996 14.0486L20.571 6.85716H5.99958M9.42815 19.7143C9.42815 20.1877 9.0444 20.5714 8.57101 20.5714C8.09762 20.5714 7.71387 20.1877 7.71387 19.7143C7.71387 19.2409 8.09762 18.8572 8.57101 18.8572C9.0444 18.8572 9.42815 19.2409 9.42815 19.7143ZM18.8567 19.7143C18.8567 20.1877 18.473 20.5714 17.9996 20.5714C17.5262 20.5714 17.1424 20.1877 17.1424 19.7143C17.1424 19.2409 17.5262 18.8572 17.9996 18.8572C18.473 18.8572 18.8567 19.2409 18.8567 19.7143Z" stroke="white" stroke-width="1.2" stroke-linecap="round" stroke-linejoin="round"/>
</svg>
